<mxfile host="app.diagrams.net" modified="2023-07-28T02:22:44.149Z" agent="Mozilla/5.0 (Windows NT 10.0; Win64; x64) AppleWebKit/537.36 (KHTML, like Gecko) Chrome/114.0.0.0 Safari/537.36" etag="WqEEXUMoqWs67ZFLh2vX" version="21.6.5" type="github">
  <diagram id="prtHgNgQTEPvFCAcTncT" name="Page-1">
    <mxGraphModel dx="1433" dy="916" grid="1" gridSize="10" guides="1" tooltips="1" connect="1" arrows="1" fold="1" page="1" pageScale="1" pageWidth="827" pageHeight="1169" math="0" shadow="0">
      <root>
        <mxCell id="0" />
        <mxCell id="1" parent="0" />
        <mxCell id="dNxyNK7c78bLwvsdeMH5-19" value="End to End ARB Flow" style="swimlane;html=1;childLayout=stackLayout;resizeParent=1;resizeParentMax=0;horizontal=0;startSize=20;horizontalStack=0;" parent="1" vertex="1">
          <mxGeometry x="135" y="120" width="1310" height="670" as="geometry" />
        </mxCell>
        <mxCell id="dNxyNK7c78bLwvsdeMH5-35" style="edgeStyle=orthogonalEdgeStyle;rounded=0;orthogonalLoop=1;jettySize=auto;html=1;endArrow=classic;endFill=1;" parent="dNxyNK7c78bLwvsdeMH5-19" source="dNxyNK7c78bLwvsdeMH5-24" target="3R6BSiVQZXMqwLIg5scC-8" edge="1">
          <mxGeometry relative="1" as="geometry">
            <mxPoint x="283" y="180" as="sourcePoint" />
          </mxGeometry>
        </mxCell>
        <mxCell id="dNxyNK7c78bLwvsdeMH5-20" value="PMO" style="swimlane;html=1;startSize=50;horizontal=0;" parent="dNxyNK7c78bLwvsdeMH5-19" vertex="1">
          <mxGeometry x="20" width="1290" height="80" as="geometry" />
        </mxCell>
        <mxCell id="dNxyNK7c78bLwvsdeMH5-24" value="Business Initiatives before Biz Case Approval" style="rounded=0;whiteSpace=wrap;html=1;fontFamily=Helvetica;fontSize=12;fontColor=#000000;align=center;" parent="dNxyNK7c78bLwvsdeMH5-20" vertex="1">
          <mxGeometry x="125" y="8" width="90" height="60" as="geometry" />
        </mxCell>
        <mxCell id="5ROh5u9C2AMJq6cVjXNk-48" value="Approve Biz Case (with other flags)" style="rounded=0;whiteSpace=wrap;html=1;fontFamily=Helvetica;fontSize=12;fontColor=#000000;align=center;" parent="dNxyNK7c78bLwvsdeMH5-20" vertex="1">
          <mxGeometry x="330" y="10" width="100" height="60" as="geometry" />
        </mxCell>
        <mxCell id="dNxyNK7c78bLwvsdeMH5-21" value="Demand Mgmt." style="swimlane;html=1;startSize=50;horizontal=0;" parent="dNxyNK7c78bLwvsdeMH5-19" vertex="1">
          <mxGeometry x="20" y="80" width="1290" height="120" as="geometry" />
        </mxCell>
        <mxCell id="dNxyNK7c78bLwvsdeMH5-26" value="BAU Changes" style="rounded=0;whiteSpace=wrap;html=1;fontFamily=Helvetica;fontSize=12;fontColor=#000000;align=center;" parent="dNxyNK7c78bLwvsdeMH5-21" vertex="1">
          <mxGeometry x="485" y="30" width="93" height="60" as="geometry" />
        </mxCell>
        <mxCell id="5ROh5u9C2AMJq6cVjXNk-16" value="" style="ellipse;whiteSpace=wrap;html=1;" parent="dNxyNK7c78bLwvsdeMH5-21" vertex="1">
          <mxGeometry x="54" y="-54" width="27" height="30" as="geometry" />
        </mxCell>
        <mxCell id="3R6BSiVQZXMqwLIg5scC-1" value="JIRA Ticket Creation for ARB Solution Review&amp;nbsp;" style="rounded=0;whiteSpace=wrap;html=1;fontFamily=Helvetica;fontSize=12;align=center;fillColor=#d5e8d4;strokeColor=#82b366;" vertex="1" parent="dNxyNK7c78bLwvsdeMH5-21">
          <mxGeometry x="616" y="30" width="100" height="60" as="geometry" />
        </mxCell>
        <mxCell id="5ROh5u9C2AMJq6cVjXNk-20" style="edgeStyle=orthogonalEdgeStyle;rounded=0;orthogonalLoop=1;jettySize=auto;html=1;endArrow=classic;endFill=1;exitX=1;exitY=0.5;exitDx=0;exitDy=0;entryX=0;entryY=0.5;entryDx=0;entryDy=0;" parent="dNxyNK7c78bLwvsdeMH5-21" source="dNxyNK7c78bLwvsdeMH5-26" target="3R6BSiVQZXMqwLIg5scC-1" edge="1">
          <mxGeometry relative="1" as="geometry">
            <mxPoint x="223" y="-10" as="sourcePoint" />
            <mxPoint x="273" y="170" as="targetPoint" />
          </mxGeometry>
        </mxCell>
        <mxCell id="3R6BSiVQZXMqwLIg5scC-4" value="JIRA Ticket Closed for ARB Solution Review&amp;nbsp;" style="rounded=0;whiteSpace=wrap;html=1;fontFamily=Helvetica;fontSize=12;align=center;fillColor=#d5e8d4;strokeColor=#82b366;" vertex="1" parent="dNxyNK7c78bLwvsdeMH5-21">
          <mxGeometry x="740" y="30" width="90" height="60" as="geometry" />
        </mxCell>
        <mxCell id="3R6BSiVQZXMqwLIg5scC-11" value="" style="ellipse;whiteSpace=wrap;html=1;" vertex="1" parent="dNxyNK7c78bLwvsdeMH5-21">
          <mxGeometry x="438" y="45" width="27" height="30" as="geometry" />
        </mxCell>
        <mxCell id="3R6BSiVQZXMqwLIg5scC-8" value="JIRA Ticket Creation for ARB HL Arch. Review&amp;nbsp;" style="rounded=0;whiteSpace=wrap;html=1;fontFamily=Helvetica;fontSize=12;align=center;fillColor=#dae8fc;strokeColor=#6c8ebf;" vertex="1" parent="dNxyNK7c78bLwvsdeMH5-21">
          <mxGeometry x="225" y="30" width="100" height="60" as="geometry" />
        </mxCell>
        <mxCell id="3R6BSiVQZXMqwLIg5scC-15" value="JIRA Ticket Closed for ARB HL Arch. Review&amp;nbsp;" style="rounded=0;whiteSpace=wrap;html=1;fontFamily=Helvetica;fontSize=12;align=center;fillColor=#dae8fc;strokeColor=#6c8ebf;" vertex="1" parent="dNxyNK7c78bLwvsdeMH5-21">
          <mxGeometry x="330" y="30" width="100" height="60" as="geometry" />
        </mxCell>
        <mxCell id="3R6BSiVQZXMqwLIg5scC-17" value="JIRA Ticket Creation for Technical Debt" style="rounded=0;whiteSpace=wrap;html=1;fontFamily=Helvetica;fontSize=12;align=center;fillColor=#e1d5e7;strokeColor=#9673a6;" vertex="1" parent="dNxyNK7c78bLwvsdeMH5-21">
          <mxGeometry x="925" y="30" width="100" height="60" as="geometry" />
        </mxCell>
        <mxCell id="3R6BSiVQZXMqwLIg5scC-18" value="JIRA Ticket Closed for Technical Debt&amp;nbsp;" style="rounded=0;whiteSpace=wrap;html=1;fontFamily=Helvetica;fontSize=12;align=center;fillColor=#e1d5e7;strokeColor=#9673a6;" vertex="1" parent="dNxyNK7c78bLwvsdeMH5-21">
          <mxGeometry x="1045" y="30" width="100" height="60" as="geometry" />
        </mxCell>
        <mxCell id="dNxyNK7c78bLwvsdeMH5-22" value="Biz Soln. (owner), &lt;br&gt;AD&amp;amp;M (checklist &lt;br&gt;validate)" style="swimlane;html=1;startSize=50;horizontal=0;" parent="dNxyNK7c78bLwvsdeMH5-19" vertex="1">
          <mxGeometry x="20" y="200" width="1290" height="110" as="geometry" />
        </mxCell>
        <mxCell id="dNxyNK7c78bLwvsdeMH5-34" value="Analysis Initiatives and answers Questionnaire for High Level Architecture Review" style="rounded=0;whiteSpace=wrap;html=1;fontFamily=Helvetica;fontSize=12;fontColor=#000000;align=center;" parent="dNxyNK7c78bLwvsdeMH5-22" vertex="1">
          <mxGeometry x="223" y="20" width="110" height="80" as="geometry" />
        </mxCell>
        <mxCell id="5ROh5u9C2AMJq6cVjXNk-6" value="Update Questionnaire and re-submit" style="rounded=0;whiteSpace=wrap;html=1;fontFamily=Helvetica;fontSize=12;fontColor=#000000;align=center;" parent="dNxyNK7c78bLwvsdeMH5-22" vertex="1">
          <mxGeometry x="390.5" y="20" width="95" height="60" as="geometry" />
        </mxCell>
        <mxCell id="5ROh5u9C2AMJq6cVjXNk-24" value="Brief and agree with Business the NO GO reason" style="rounded=0;whiteSpace=wrap;html=1;fontFamily=Helvetica;fontSize=12;fontColor=#000000;align=center;" parent="dNxyNK7c78bLwvsdeMH5-22" vertex="1">
          <mxGeometry x="490" y="20" width="95" height="60" as="geometry" />
        </mxCell>
        <mxCell id="5ROh5u9C2AMJq6cVjXNk-49" value="Document Solutions Spec." style="rounded=0;whiteSpace=wrap;html=1;fontFamily=Helvetica;fontSize=12;fontColor=#000000;align=center;" parent="dNxyNK7c78bLwvsdeMH5-22" vertex="1">
          <mxGeometry x="905" y="21" width="95" height="59" as="geometry" />
        </mxCell>
        <mxCell id="3R6BSiVQZXMqwLIg5scC-6" style="edgeStyle=orthogonalEdgeStyle;rounded=0;orthogonalLoop=1;jettySize=auto;html=1;exitX=1;exitY=0.5;exitDx=0;exitDy=0;" edge="1" parent="dNxyNK7c78bLwvsdeMH5-22" source="5ROh5u9C2AMJq6cVjXNk-16">
          <mxGeometry relative="1" as="geometry">
            <mxPoint x="125" y="-159" as="targetPoint" />
          </mxGeometry>
        </mxCell>
        <mxCell id="5ROh5u9C2AMJq6cVjXNk-4" value="AD&amp;amp;M/ Infra" style="swimlane;html=1;startSize=50;horizontal=0;" parent="dNxyNK7c78bLwvsdeMH5-19" vertex="1">
          <mxGeometry x="20" y="310" width="1290" height="100" as="geometry" />
        </mxCell>
        <mxCell id="5ROh5u9C2AMJq6cVjXNk-14" value="Answer Questionnaire for Solutions Review" style="rounded=0;whiteSpace=wrap;html=1;fontFamily=Helvetica;fontSize=12;fontColor=#000000;align=center;" parent="5ROh5u9C2AMJq6cVjXNk-4" vertex="1">
          <mxGeometry x="613" y="-90" width="105" height="60" as="geometry" />
        </mxCell>
        <mxCell id="5ROh5u9C2AMJq6cVjXNk-39" value="Update Questionnaire and re-submit" style="rounded=0;whiteSpace=wrap;html=1;fontFamily=Helvetica;fontSize=12;fontColor=#000000;align=center;" parent="5ROh5u9C2AMJq6cVjXNk-4" vertex="1">
          <mxGeometry x="740" y="-90" width="95" height="60" as="geometry" />
        </mxCell>
        <mxCell id="5ROh5u9C2AMJq6cVjXNk-46" value="Start Implementation" style="rounded=0;whiteSpace=wrap;html=1;fontFamily=Helvetica;fontSize=12;fontColor=#000000;align=center;" parent="5ROh5u9C2AMJq6cVjXNk-4" vertex="1">
          <mxGeometry x="1020" y="20" width="90" height="60" as="geometry" />
        </mxCell>
        <mxCell id="3R6BSiVQZXMqwLIg5scC-22" value="Keep Track Technical Debt and submit ARB for approval" style="rounded=0;whiteSpace=wrap;html=1;fontFamily=Helvetica;fontSize=12;fontColor=#000000;align=center;" vertex="1" parent="5ROh5u9C2AMJq6cVjXNk-4">
          <mxGeometry x="1185" y="20" width="90" height="60" as="geometry" />
        </mxCell>
        <mxCell id="5ROh5u9C2AMJq6cVjXNk-8" value="ARB" style="swimlane;html=1;startSize=50;horizontal=0;" parent="dNxyNK7c78bLwvsdeMH5-19" vertex="1">
          <mxGeometry x="20" y="410" width="1290" height="100" as="geometry" />
        </mxCell>
        <mxCell id="5ROh5u9C2AMJq6cVjXNk-9" value="" style="edgeStyle=orthogonalEdgeStyle;rounded=0;orthogonalLoop=1;jettySize=auto;html=1;endArrow=classic;endFill=1;" parent="5ROh5u9C2AMJq6cVjXNk-8" source="5ROh5u9C2AMJq6cVjXNk-10" target="5ROh5u9C2AMJq6cVjXNk-11" edge="1">
          <mxGeometry relative="1" as="geometry">
            <mxPoint x="463" y="40" as="sourcePoint" />
          </mxGeometry>
        </mxCell>
        <mxCell id="5ROh5u9C2AMJq6cVjXNk-10" value="High Level Architecture Design Review" style="rounded=0;whiteSpace=wrap;html=1;fontFamily=Helvetica;fontSize=12;fontColor=#000000;align=center;" parent="5ROh5u9C2AMJq6cVjXNk-8" vertex="1">
          <mxGeometry x="203" y="20" width="150" height="60" as="geometry" />
        </mxCell>
        <mxCell id="5ROh5u9C2AMJq6cVjXNk-57" style="edgeStyle=orthogonalEdgeStyle;rounded=0;orthogonalLoop=1;jettySize=auto;html=1;exitX=0.5;exitY=0;exitDx=0;exitDy=0;" parent="5ROh5u9C2AMJq6cVjXNk-8" source="5ROh5u9C2AMJq6cVjXNk-11" edge="1">
          <mxGeometry relative="1" as="geometry">
            <mxPoint x="440" y="30" as="targetPoint" />
          </mxGeometry>
        </mxCell>
        <mxCell id="5ROh5u9C2AMJq6cVjXNk-11" value="Review&lt;br&gt;Outcome" style="rhombus;whiteSpace=wrap;html=1;fontFamily=Helvetica;fontSize=12;fontColor=#000000;align=center;" parent="5ROh5u9C2AMJq6cVjXNk-8" vertex="1">
          <mxGeometry x="393" y="25" width="90" height="50" as="geometry" />
        </mxCell>
        <mxCell id="5ROh5u9C2AMJq6cVjXNk-28" value="Solutions Review" style="rounded=0;whiteSpace=wrap;html=1;fontFamily=Helvetica;fontSize=12;fontColor=#000000;align=center;" parent="5ROh5u9C2AMJq6cVjXNk-8" vertex="1">
          <mxGeometry x="616" y="20" width="100" height="60" as="geometry" />
        </mxCell>
        <mxCell id="5ROh5u9C2AMJq6cVjXNk-31" value="Review&lt;br&gt;Outcome" style="rhombus;whiteSpace=wrap;html=1;fontFamily=Helvetica;fontSize=12;fontColor=#000000;align=center;" parent="5ROh5u9C2AMJq6cVjXNk-8" vertex="1">
          <mxGeometry x="743" y="30" width="90" height="40" as="geometry" />
        </mxCell>
        <mxCell id="5ROh5u9C2AMJq6cVjXNk-32" value="" style="edgeStyle=orthogonalEdgeStyle;rounded=0;orthogonalLoop=1;jettySize=auto;html=1;endArrow=classic;endFill=1;entryX=0;entryY=0.5;entryDx=0;entryDy=0;exitX=1;exitY=0.5;exitDx=0;exitDy=0;" parent="5ROh5u9C2AMJq6cVjXNk-8" source="5ROh5u9C2AMJq6cVjXNk-28" target="5ROh5u9C2AMJq6cVjXNk-31" edge="1">
          <mxGeometry relative="1" as="geometry">
            <mxPoint x="723" y="50" as="sourcePoint" />
            <mxPoint x="403" y="60" as="targetPoint" />
          </mxGeometry>
        </mxCell>
        <mxCell id="5ROh5u9C2AMJq6cVjXNk-33" value="Flag &quot;GO&quot; status for ARB" style="rounded=0;whiteSpace=wrap;html=1;fontFamily=Helvetica;fontSize=12;fontColor=#000000;align=center;" parent="5ROh5u9C2AMJq6cVjXNk-8" vertex="1">
          <mxGeometry x="881" y="21" width="95" height="59" as="geometry" />
        </mxCell>
        <mxCell id="5ROh5u9C2AMJq6cVjXNk-36" value="" style="edgeStyle=orthogonalEdgeStyle;rounded=0;orthogonalLoop=1;jettySize=auto;html=1;endArrow=classic;endFill=1;entryX=0;entryY=0.5;entryDx=0;entryDy=0;" parent="5ROh5u9C2AMJq6cVjXNk-8" target="5ROh5u9C2AMJq6cVjXNk-33" edge="1">
          <mxGeometry relative="1" as="geometry">
            <mxPoint x="830" y="50" as="sourcePoint" />
            <mxPoint x="978" y="90" as="targetPoint" />
            <Array as="points">
              <mxPoint x="830" y="51" />
              <mxPoint x="850" y="51" />
              <mxPoint x="850" y="50" />
            </Array>
          </mxGeometry>
        </mxCell>
        <mxCell id="5ROh5u9C2AMJq6cVjXNk-37" value="GO" style="edgeLabel;html=1;align=center;verticalAlign=middle;resizable=0;points=[];" parent="5ROh5u9C2AMJq6cVjXNk-36" vertex="1" connectable="0">
          <mxGeometry x="0.1757" y="2" relative="1" as="geometry">
            <mxPoint as="offset" />
          </mxGeometry>
        </mxCell>
        <mxCell id="5ROh5u9C2AMJq6cVjXNk-34" value="" style="edgeStyle=orthogonalEdgeStyle;rounded=0;orthogonalLoop=1;jettySize=auto;html=1;endArrow=classic;endFill=1;entryX=0.5;entryY=1;entryDx=0;entryDy=0;exitX=0.5;exitY=1;exitDx=0;exitDy=0;" parent="5ROh5u9C2AMJq6cVjXNk-8" source="5ROh5u9C2AMJq6cVjXNk-11" target="5ROh5u9C2AMJq6cVjXNk-33" edge="1">
          <mxGeometry relative="1" as="geometry">
            <mxPoint x="440" y="80" as="sourcePoint" />
            <mxPoint x="623" y="-40" as="targetPoint" />
            <Array as="points">
              <mxPoint x="440" y="75" />
              <mxPoint x="440" y="90" />
              <mxPoint x="929" y="90" />
            </Array>
          </mxGeometry>
        </mxCell>
        <mxCell id="5ROh5u9C2AMJq6cVjXNk-35" value="GO and no need for next level review" style="edgeLabel;html=1;align=center;verticalAlign=middle;resizable=0;points=[];" parent="5ROh5u9C2AMJq6cVjXNk-34" vertex="1" connectable="0">
          <mxGeometry x="0.1757" y="2" relative="1" as="geometry">
            <mxPoint as="offset" />
          </mxGeometry>
        </mxCell>
        <mxCell id="5ROh5u9C2AMJq6cVjXNk-21" style="edgeStyle=orthogonalEdgeStyle;rounded=0;orthogonalLoop=1;jettySize=auto;html=1;endArrow=classic;endFill=1;exitX=0.5;exitY=1;exitDx=0;exitDy=0;entryX=0.5;entryY=0;entryDx=0;entryDy=0;" parent="dNxyNK7c78bLwvsdeMH5-19" source="dNxyNK7c78bLwvsdeMH5-34" target="5ROh5u9C2AMJq6cVjXNk-10" edge="1">
          <mxGeometry relative="1" as="geometry">
            <mxPoint x="243" y="170" as="sourcePoint" />
            <mxPoint x="318" y="250" as="targetPoint" />
          </mxGeometry>
        </mxCell>
        <mxCell id="5ROh5u9C2AMJq6cVjXNk-5" value="" style="edgeStyle=orthogonalEdgeStyle;rounded=0;orthogonalLoop=1;jettySize=auto;html=1;endArrow=classic;endFill=1;exitX=0;exitY=0.5;exitDx=0;exitDy=0;" parent="dNxyNK7c78bLwvsdeMH5-19" source="5ROh5u9C2AMJq6cVjXNk-6" edge="1">
          <mxGeometry relative="1" as="geometry">
            <mxPoint x="363" y="430" as="targetPoint" />
          </mxGeometry>
        </mxCell>
        <mxCell id="5ROh5u9C2AMJq6cVjXNk-22" value="" style="edgeStyle=orthogonalEdgeStyle;rounded=0;orthogonalLoop=1;jettySize=auto;html=1;endArrow=classic;endFill=1;exitX=0.5;exitY=0;exitDx=0;exitDy=0;entryX=0.5;entryY=1;entryDx=0;entryDy=0;" parent="dNxyNK7c78bLwvsdeMH5-19" source="5ROh5u9C2AMJq6cVjXNk-11" target="5ROh5u9C2AMJq6cVjXNk-6" edge="1">
          <mxGeometry relative="1" as="geometry">
            <mxPoint x="503" y="260" as="sourcePoint" />
            <mxPoint x="743" y="340" as="targetPoint" />
          </mxGeometry>
        </mxCell>
        <mxCell id="5ROh5u9C2AMJq6cVjXNk-23" value="GO with follow up" style="edgeLabel;html=1;align=center;verticalAlign=middle;resizable=0;points=[];" parent="5ROh5u9C2AMJq6cVjXNk-22" vertex="1" connectable="0">
          <mxGeometry x="0.0875" y="-1" relative="1" as="geometry">
            <mxPoint y="-23" as="offset" />
          </mxGeometry>
        </mxCell>
        <mxCell id="5ROh5u9C2AMJq6cVjXNk-25" value="" style="edgeStyle=orthogonalEdgeStyle;rounded=0;orthogonalLoop=1;jettySize=auto;html=1;endArrow=classic;endFill=1;exitX=0.5;exitY=0;exitDx=0;exitDy=0;entryX=0.5;entryY=1;entryDx=0;entryDy=0;" parent="dNxyNK7c78bLwvsdeMH5-19" source="5ROh5u9C2AMJq6cVjXNk-11" target="5ROh5u9C2AMJq6cVjXNk-24" edge="1">
          <mxGeometry relative="1" as="geometry">
            <mxPoint x="468" y="450" as="sourcePoint" />
            <mxPoint x="468" y="290" as="targetPoint" />
            <Array as="points">
              <mxPoint x="458" y="350" />
              <mxPoint x="558" y="350" />
            </Array>
          </mxGeometry>
        </mxCell>
        <mxCell id="5ROh5u9C2AMJq6cVjXNk-26" value="NO GO with reason" style="edgeLabel;html=1;align=center;verticalAlign=middle;resizable=0;points=[];" parent="5ROh5u9C2AMJq6cVjXNk-25" vertex="1" connectable="0">
          <mxGeometry x="0.0875" y="-1" relative="1" as="geometry">
            <mxPoint x="9" as="offset" />
          </mxGeometry>
        </mxCell>
        <mxCell id="5ROh5u9C2AMJq6cVjXNk-29" value="" style="edgeStyle=orthogonalEdgeStyle;rounded=0;orthogonalLoop=1;jettySize=auto;html=1;endArrow=classic;endFill=1;exitX=1;exitY=0.5;exitDx=0;exitDy=0;entryX=0.25;entryY=1;entryDx=0;entryDy=0;" parent="dNxyNK7c78bLwvsdeMH5-19" source="5ROh5u9C2AMJq6cVjXNk-11" target="5ROh5u9C2AMJq6cVjXNk-14" edge="1">
          <mxGeometry relative="1" as="geometry">
            <mxPoint x="503" y="461" as="sourcePoint" />
            <mxPoint x="610" y="250" as="targetPoint" />
            <Array as="points">
              <mxPoint x="503" y="461" />
              <mxPoint x="603" y="461" />
              <mxPoint x="603" y="360" />
              <mxPoint x="659" y="360" />
            </Array>
          </mxGeometry>
        </mxCell>
        <mxCell id="5ROh5u9C2AMJq6cVjXNk-30" value="GO with&lt;br&gt;next level&lt;br&gt;review&lt;br&gt;required" style="edgeLabel;html=1;align=center;verticalAlign=middle;resizable=0;points=[];" parent="5ROh5u9C2AMJq6cVjXNk-29" vertex="1" connectable="0">
          <mxGeometry x="0.1757" y="2" relative="1" as="geometry">
            <mxPoint x="4" y="17" as="offset" />
          </mxGeometry>
        </mxCell>
        <mxCell id="5ROh5u9C2AMJq6cVjXNk-13" value="" style="edgeStyle=orthogonalEdgeStyle;rounded=0;orthogonalLoop=1;jettySize=auto;html=1;endArrow=classic;endFill=1;exitX=0.5;exitY=1;exitDx=0;exitDy=0;entryX=0.5;entryY=0;entryDx=0;entryDy=0;" parent="dNxyNK7c78bLwvsdeMH5-19" source="5ROh5u9C2AMJq6cVjXNk-14" target="5ROh5u9C2AMJq6cVjXNk-28" edge="1">
          <mxGeometry relative="1" as="geometry" />
        </mxCell>
        <mxCell id="5ROh5u9C2AMJq6cVjXNk-12" value="Procurement" style="swimlane;html=1;startSize=50;horizontal=0;" parent="dNxyNK7c78bLwvsdeMH5-19" vertex="1">
          <mxGeometry x="20" y="510" width="1290" height="80" as="geometry" />
        </mxCell>
        <mxCell id="5ROh5u9C2AMJq6cVjXNk-44" value="Procurement Decision will check ARB &quot;GO&quot; Flag and vendor&#39;s SOW shall state ARB agreed standards" style="rounded=0;whiteSpace=wrap;html=1;fontFamily=Helvetica;fontSize=12;fontColor=#000000;align=center;" parent="5ROh5u9C2AMJq6cVjXNk-12" vertex="1">
          <mxGeometry x="970" y="10.5" width="150" height="59" as="geometry" />
        </mxCell>
        <mxCell id="Hr4R-x_J6NkitY71EMy_-1" value="CAB" style="swimlane;html=1;startSize=50;horizontal=0;" parent="dNxyNK7c78bLwvsdeMH5-19" vertex="1">
          <mxGeometry x="20" y="590" width="1290" height="80" as="geometry" />
        </mxCell>
        <mxCell id="Hr4R-x_J6NkitY71EMy_-2" value="Check ARB Approval Flag as one of the signals for CAB Approval" style="rounded=0;whiteSpace=wrap;html=1;fontFamily=Helvetica;fontSize=12;fontColor=#000000;align=center;" parent="Hr4R-x_J6NkitY71EMy_-1" vertex="1">
          <mxGeometry x="1121" y="10.5" width="109" height="59" as="geometry" />
        </mxCell>
        <mxCell id="5ROh5u9C2AMJq6cVjXNk-52" value="" style="ellipse;whiteSpace=wrap;html=1;" parent="Hr4R-x_J6NkitY71EMy_-1" vertex="1">
          <mxGeometry x="1250" y="25" width="30" height="30" as="geometry" />
        </mxCell>
        <mxCell id="5ROh5u9C2AMJq6cVjXNk-40" value="" style="edgeStyle=orthogonalEdgeStyle;rounded=0;orthogonalLoop=1;jettySize=auto;html=1;endArrow=classic;endFill=1;exitX=0.5;exitY=0;exitDx=0;exitDy=0;" parent="dNxyNK7c78bLwvsdeMH5-19" source="5ROh5u9C2AMJq6cVjXNk-31" target="5ROh5u9C2AMJq6cVjXNk-39" edge="1">
          <mxGeometry relative="1" as="geometry">
            <mxPoint x="468" y="450" as="sourcePoint" />
            <mxPoint x="468" y="290" as="targetPoint" />
          </mxGeometry>
        </mxCell>
        <mxCell id="5ROh5u9C2AMJq6cVjXNk-41" value="NO GO &lt;br&gt;with follow up" style="edgeLabel;html=1;align=center;verticalAlign=middle;resizable=0;points=[];" parent="5ROh5u9C2AMJq6cVjXNk-40" vertex="1" connectable="0">
          <mxGeometry x="0.0875" y="-1" relative="1" as="geometry">
            <mxPoint x="12" y="7" as="offset" />
          </mxGeometry>
        </mxCell>
        <mxCell id="5ROh5u9C2AMJq6cVjXNk-42" value="" style="edgeStyle=orthogonalEdgeStyle;rounded=0;orthogonalLoop=1;jettySize=auto;html=1;endArrow=classic;endFill=1;exitX=0.25;exitY=1;exitDx=0;exitDy=0;entryX=0.75;entryY=0;entryDx=0;entryDy=0;" parent="dNxyNK7c78bLwvsdeMH5-19" source="5ROh5u9C2AMJq6cVjXNk-39" target="5ROh5u9C2AMJq6cVjXNk-28" edge="1">
          <mxGeometry relative="1" as="geometry">
            <mxPoint x="768" y="460" as="sourcePoint" />
            <mxPoint x="720" y="640" as="targetPoint" />
            <Array as="points">
              <mxPoint x="784" y="400" />
              <mxPoint x="711" y="400" />
            </Array>
          </mxGeometry>
        </mxCell>
        <mxCell id="5ROh5u9C2AMJq6cVjXNk-45" value="" style="edgeStyle=orthogonalEdgeStyle;rounded=0;orthogonalLoop=1;jettySize=auto;html=1;endArrow=classic;endFill=1;exitX=0.75;exitY=1;exitDx=0;exitDy=0;entryX=0;entryY=0.5;entryDx=0;entryDy=0;" parent="dNxyNK7c78bLwvsdeMH5-19" source="5ROh5u9C2AMJq6cVjXNk-33" target="5ROh5u9C2AMJq6cVjXNk-44" edge="1">
          <mxGeometry relative="1" as="geometry">
            <mxPoint x="1088" y="550" as="sourcePoint" />
            <mxPoint x="1040" y="730" as="targetPoint" />
            <Array as="points">
              <mxPoint x="970" y="490" />
              <mxPoint x="970" y="550" />
            </Array>
          </mxGeometry>
        </mxCell>
        <mxCell id="5ROh5u9C2AMJq6cVjXNk-47" value="" style="edgeStyle=orthogonalEdgeStyle;rounded=0;orthogonalLoop=1;jettySize=auto;html=1;endArrow=classic;endFill=1;entryX=0;entryY=0.5;entryDx=0;entryDy=0;" parent="dNxyNK7c78bLwvsdeMH5-19" target="5ROh5u9C2AMJq6cVjXNk-46" edge="1">
          <mxGeometry relative="1" as="geometry">
            <mxPoint x="1010" y="520" as="sourcePoint" />
            <mxPoint x="1000" y="560" as="targetPoint" />
            <Array as="points">
              <mxPoint x="1010" y="520" />
              <mxPoint x="1010" y="360" />
            </Array>
          </mxGeometry>
        </mxCell>
        <mxCell id="5ROh5u9C2AMJq6cVjXNk-50" value="" style="edgeStyle=orthogonalEdgeStyle;rounded=0;orthogonalLoop=1;jettySize=auto;html=1;endArrow=classic;endFill=1;exitX=0.5;exitY=0;exitDx=0;exitDy=0;entryX=0.5;entryY=1;entryDx=0;entryDy=0;" parent="dNxyNK7c78bLwvsdeMH5-19" source="5ROh5u9C2AMJq6cVjXNk-33" target="5ROh5u9C2AMJq6cVjXNk-49" edge="1">
          <mxGeometry relative="1" as="geometry">
            <mxPoint x="1020" y="530" as="sourcePoint" />
            <mxPoint x="950" y="290" as="targetPoint" />
            <Array as="points">
              <mxPoint x="948" y="431" />
            </Array>
          </mxGeometry>
        </mxCell>
        <mxCell id="5ROh5u9C2AMJq6cVjXNk-51" value="" style="edgeStyle=orthogonalEdgeStyle;rounded=0;orthogonalLoop=1;jettySize=auto;html=1;endArrow=classic;endFill=1;exitX=1;exitY=0.5;exitDx=0;exitDy=0;entryX=0.5;entryY=0;entryDx=0;entryDy=0;" parent="dNxyNK7c78bLwvsdeMH5-19" source="5ROh5u9C2AMJq6cVjXNk-49" target="5ROh5u9C2AMJq6cVjXNk-46" edge="1">
          <mxGeometry relative="1" as="geometry">
            <mxPoint x="959" y="441" as="sourcePoint" />
            <mxPoint x="958" y="290" as="targetPoint" />
            <Array as="points">
              <mxPoint x="1085" y="251" />
            </Array>
          </mxGeometry>
        </mxCell>
        <mxCell id="5ROh5u9C2AMJq6cVjXNk-54" value="" style="edgeStyle=orthogonalEdgeStyle;rounded=0;orthogonalLoop=1;jettySize=auto;html=1;endArrow=classic;endFill=1;exitX=0.5;exitY=0;exitDx=0;exitDy=0;entryX=0.5;entryY=1;entryDx=0;entryDy=0;" parent="dNxyNK7c78bLwvsdeMH5-19" source="5ROh5u9C2AMJq6cVjXNk-11" edge="1" target="3R6BSiVQZXMqwLIg5scC-15">
          <mxGeometry relative="1" as="geometry">
            <mxPoint x="410" y="430" as="sourcePoint" />
            <mxPoint x="395" y="160" as="targetPoint" />
            <Array as="points">
              <mxPoint x="458" y="370" />
              <mxPoint x="400" y="370" />
            </Array>
          </mxGeometry>
        </mxCell>
        <mxCell id="5ROh5u9C2AMJq6cVjXNk-56" value="GO" style="edgeLabel;html=1;align=center;verticalAlign=middle;resizable=0;points=[];" parent="5ROh5u9C2AMJq6cVjXNk-54" vertex="1" connectable="0">
          <mxGeometry x="0.2411" y="-1" relative="1" as="geometry">
            <mxPoint as="offset" />
          </mxGeometry>
        </mxCell>
        <mxCell id="5ROh5u9C2AMJq6cVjXNk-53" value="" style="edgeStyle=orthogonalEdgeStyle;rounded=0;orthogonalLoop=1;jettySize=auto;html=1;entryX=0.5;entryY=0;entryDx=0;entryDy=0;exitX=1;exitY=0.5;exitDx=0;exitDy=0;" parent="dNxyNK7c78bLwvsdeMH5-19" source="5ROh5u9C2AMJq6cVjXNk-46" target="Hr4R-x_J6NkitY71EMy_-2" edge="1">
          <mxGeometry relative="1" as="geometry">
            <mxPoint x="1140" y="370" as="sourcePoint" />
            <mxPoint x="150" y="150" as="targetPoint" />
          </mxGeometry>
        </mxCell>
        <mxCell id="3R6BSiVQZXMqwLIg5scC-3" style="edgeStyle=orthogonalEdgeStyle;rounded=0;orthogonalLoop=1;jettySize=auto;html=1;endArrow=classic;endFill=1;exitX=0.5;exitY=1;exitDx=0;exitDy=0;" edge="1" parent="dNxyNK7c78bLwvsdeMH5-19" source="3R6BSiVQZXMqwLIg5scC-1" target="5ROh5u9C2AMJq6cVjXNk-14">
          <mxGeometry relative="1" as="geometry">
            <mxPoint x="240" y="48" as="sourcePoint" />
            <mxPoint x="308" y="230" as="targetPoint" />
          </mxGeometry>
        </mxCell>
        <mxCell id="3R6BSiVQZXMqwLIg5scC-16" style="edgeStyle=orthogonalEdgeStyle;rounded=0;orthogonalLoop=1;jettySize=auto;html=1;endArrow=classic;endFill=1;entryX=0.5;entryY=1;entryDx=0;entryDy=0;exitX=0.5;exitY=0;exitDx=0;exitDy=0;" edge="1" parent="dNxyNK7c78bLwvsdeMH5-19" source="3R6BSiVQZXMqwLIg5scC-15" target="5ROh5u9C2AMJq6cVjXNk-48">
          <mxGeometry relative="1" as="geometry">
            <mxPoint x="308" y="180" as="sourcePoint" />
            <mxPoint x="308" y="230" as="targetPoint" />
          </mxGeometry>
        </mxCell>
        <mxCell id="3R6BSiVQZXMqwLIg5scC-7" value="" style="edgeStyle=orthogonalEdgeStyle;rounded=0;orthogonalLoop=1;jettySize=auto;html=1;endArrow=classic;endFill=1;entryX=1;entryY=0.5;entryDx=0;entryDy=0;exitX=0;exitY=0;exitDx=0;exitDy=0;" edge="1" parent="dNxyNK7c78bLwvsdeMH5-19" source="5ROh5u9C2AMJq6cVjXNk-33" target="3R6BSiVQZXMqwLIg5scC-4">
          <mxGeometry relative="1" as="geometry">
            <mxPoint x="915" y="430" as="sourcePoint" />
            <mxPoint x="865" y="140" as="targetPoint" />
            <Array as="points">
              <mxPoint x="905" y="431" />
              <mxPoint x="905" y="140" />
            </Array>
          </mxGeometry>
        </mxCell>
        <mxCell id="3R6BSiVQZXMqwLIg5scC-23" value="" style="edgeStyle=orthogonalEdgeStyle;rounded=0;orthogonalLoop=1;jettySize=auto;html=1;endArrow=classic;endFill=1;exitX=0.5;exitY=0;exitDx=0;exitDy=0;entryX=1;entryY=0.5;entryDx=0;entryDy=0;" edge="1" parent="dNxyNK7c78bLwvsdeMH5-19" source="3R6BSiVQZXMqwLIg5scC-22" target="3R6BSiVQZXMqwLIg5scC-18">
          <mxGeometry relative="1" as="geometry">
            <mxPoint x="1030" y="261" as="sourcePoint" />
            <mxPoint x="1095" y="340" as="targetPoint" />
            <Array as="points">
              <mxPoint x="1250" y="140" />
            </Array>
          </mxGeometry>
        </mxCell>
        <mxCell id="3R6BSiVQZXMqwLIg5scC-24" value="" style="edgeStyle=orthogonalEdgeStyle;rounded=0;orthogonalLoop=1;jettySize=auto;html=1;endArrow=classic;endFill=1;entryX=0.5;entryY=1;entryDx=0;entryDy=0;exitX=1;exitY=0.5;exitDx=0;exitDy=0;" edge="1" parent="dNxyNK7c78bLwvsdeMH5-19" source="5ROh5u9C2AMJq6cVjXNk-33" target="3R6BSiVQZXMqwLIg5scC-22">
          <mxGeometry relative="1" as="geometry">
            <mxPoint x="1080" y="465" as="sourcePoint" />
            <mxPoint x="1335" y="385" as="targetPoint" />
            <Array as="points">
              <mxPoint x="1250" y="461" />
            </Array>
          </mxGeometry>
        </mxCell>
        <mxCell id="3R6BSiVQZXMqwLIg5scC-25" value="GO with Tech. Debt" style="edgeLabel;html=1;align=center;verticalAlign=middle;resizable=0;points=[];" vertex="1" connectable="0" parent="3R6BSiVQZXMqwLIg5scC-24">
          <mxGeometry x="-0.3159" y="-1" relative="1" as="geometry">
            <mxPoint y="1" as="offset" />
          </mxGeometry>
        </mxCell>
        <mxCell id="Hr4R-x_J6NkitY71EMy_-3" value="" style="edgeStyle=orthogonalEdgeStyle;rounded=0;orthogonalLoop=1;jettySize=auto;html=1;endArrow=classic;endFill=1;entryX=0;entryY=0.5;entryDx=0;entryDy=0;" parent="1" target="5ROh5u9C2AMJq6cVjXNk-52" edge="1">
          <mxGeometry relative="1" as="geometry">
            <mxPoint x="1390" y="750" as="sourcePoint" />
            <mxPoint x="543" y="590" as="targetPoint" />
            <Array as="points">
              <mxPoint x="1380" y="750" />
              <mxPoint x="1380" y="750" />
            </Array>
          </mxGeometry>
        </mxCell>
        <mxCell id="3R6BSiVQZXMqwLIg5scC-12" style="edgeStyle=orthogonalEdgeStyle;rounded=0;orthogonalLoop=1;jettySize=auto;html=1;entryX=0;entryY=0.5;entryDx=0;entryDy=0;" edge="1" parent="1" target="dNxyNK7c78bLwvsdeMH5-26">
          <mxGeometry relative="1" as="geometry">
            <mxPoint x="620" y="260" as="sourcePoint" />
            <mxPoint x="290" y="171" as="targetPoint" />
          </mxGeometry>
        </mxCell>
        <mxCell id="3R6BSiVQZXMqwLIg5scC-14" style="edgeStyle=orthogonalEdgeStyle;rounded=0;orthogonalLoop=1;jettySize=auto;html=1;endArrow=classic;endFill=1;entryX=0.5;entryY=0;entryDx=0;entryDy=0;" edge="1" parent="1" target="dNxyNK7c78bLwvsdeMH5-34">
          <mxGeometry relative="1" as="geometry">
            <mxPoint x="433" y="290" as="sourcePoint" />
            <mxPoint x="440" y="240" as="targetPoint" />
          </mxGeometry>
        </mxCell>
        <mxCell id="3R6BSiVQZXMqwLIg5scC-20" value="" style="edgeStyle=orthogonalEdgeStyle;rounded=0;orthogonalLoop=1;jettySize=auto;html=1;endArrow=classic;endFill=1;entryX=0;entryY=0.5;entryDx=0;entryDy=0;" edge="1" parent="1" target="3R6BSiVQZXMqwLIg5scC-17">
          <mxGeometry relative="1" as="geometry">
            <mxPoint x="1050" y="550" as="sourcePoint" />
            <mxPoint x="1080" y="270" as="targetPoint" />
            <Array as="points">
              <mxPoint x="1050" y="550" />
              <mxPoint x="1050" y="260" />
            </Array>
          </mxGeometry>
        </mxCell>
        <mxCell id="3R6BSiVQZXMqwLIg5scC-21" value="GO&lt;br&gt;with&lt;br&gt;Techh.&lt;br&gt;Debt" style="edgeLabel;html=1;align=center;verticalAlign=middle;resizable=0;points=[];" vertex="1" connectable="0" parent="3R6BSiVQZXMqwLIg5scC-20">
          <mxGeometry x="0.5938" y="-1" relative="1" as="geometry">
            <mxPoint x="9" y="15" as="offset" />
          </mxGeometry>
        </mxCell>
      </root>
    </mxGraphModel>
  </diagram>
</mxfile>
